<?xml version="1.0" standalone="no"?>
<!DOCTYPE svg PUBLIC "-//W3C//DTD SVG 20010904//EN"
 "http://www.w3.org/TR/2001/REC-SVG-20010904/DTD/svg10.dtd">
<svg version="1.0" xmlns="http://www.w3.org/2000/svg"
 width="206.000000pt" height="245.000000pt" viewBox="0 0 206.000000 245.000000"
 preserveAspectRatio="xMidYMid meet">
<metadata>
Created by potrace 1.16, written by Peter Selinger 2001-2019
</metadata>
<g transform="translate(0.000000,245.000000) scale(0.100000,-0.100000)"
fill="#000000" stroke="none">
<path d="M837 2410 c-43 -51 -61 -111 -55 -193 5 -78 38 -135 93 -162 21 -9
80 -25 132 -34 90 -16 97 -19 133 -58 64 -68 72 -150 20 -216 -12 -14 -64 -50
-117 -79 -54 -29 -115 -70 -136 -92 l-40 -39 -116 -8 c-127 -9 -265 -35 -350
-68 -47 -17 -57 -18 -80 -7 -14 7 -37 17 -51 21 -21 7 -18 0 22 -43 44 -46 64
-83 37 -67 -7 5 -8 -5 -4 -32 5 -30 4 -35 -5 -23 -9 12 -10 -3 -7 -65 6 -98
51 -221 102 -280 l35 -40 -26 47 c-52 96 -67 156 -73 290 l-6 127 30 -19 c17
-11 33 -29 37 -42 5 -21 6 -21 8 -3 2 11 6 -10 10 -47 9 -89 37 -126 133 -173
60 -29 90 -37 177 -46 238 -24 274 -57 234 -212 -9 -34 -14 -82 -12 -107 l3
-45 -96 3 c-66 3 -116 -1 -159 -12 -34 -9 -67 -13 -72 -9 -6 3 -8 1 -4 -5 3
-6 -8 -15 -28 -22 -93 -30 -244 -173 -262 -247 -4 -13 -14 -23 -23 -23 -11 0
-13 -3 -4 -8 10 -6 10 -17 3 -42 -6 -19 -10 -62 -10 -95 0 -128 104 -229 235
-229 45 0 72 6 97 21 l34 20 21 -23 c25 -28 78 -33 87 -8 8 21 -17 60 -42 68
-15 5 -18 16 -18 69 1 97 -30 134 -140 164 -64 18 -92 36 -104 69 -14 36 0 61
48 87 91 49 187 71 302 71 116 -1 142 -8 340 -90 107 -44 122 -48 220 -52 62
-2 122 0 148 7 59 16 107 62 127 120 15 45 15 52 -1 90 -9 23 -35 57 -57 76
l-41 35 46 0 c52 0 179 -31 242 -59 58 -25 123 -86 131 -121 17 -80 -82 -173
-273 -256 -91 -40 -78 -43 50 -10 195 49 298 131 298 236 0 138 -156 241 -425
280 -38 5 -90 10 -114 10 -43 0 -44 0 -26 20 10 11 68 35 134 56 161 49 268
103 339 169 71 65 86 98 80 166 -6 63 -45 114 -118 152 -60 31 -147 37 -205
13 l-35 -15 0 40 c0 28 -4 39 -12 37 -7 -2 -59 -19 -116 -37 l-104 -33 -56 25
c-84 37 -199 58 -359 64 -113 5 -140 9 -136 19 4 10 27 14 87 14 95 0 320 -17
350 -26 16 -5 18 -3 10 5 -14 15 -139 37 -262 46 -50 4 -95 11 -98 16 -3 5 3
6 12 2 12 -5 15 -3 9 6 -6 10 -2 11 16 6 13 -4 21 -4 17 0 -4 4 26 23 68 41
98 42 142 77 166 130 15 36 17 51 9 82 -13 46 -62 123 -100 154 -14 13 -26 26
-26 29 0 8 -101 96 -126 109 -11 7 -46 20 -77 31 -127 44 -162 131 -102 257
16 34 25 62 20 62 -4 0 -24 -18 -43 -40z m1063 -1125 c34 -18 60 -62 60 -101
0 -41 -37 -91 -99 -133 -58 -39 -321 -175 -321 -166 0 3 11 22 23 43 28 44 77
163 77 187 0 14 4 14 28 -4 26 -18 96 -40 129 -41 7 0 -10 22 -37 48 -39 37
-50 55 -50 79 0 34 32 80 64 93 34 14 95 11 126 -5z m-471 -686 c61 -13 141
-78 141 -114 0 -20 -7 -25 -36 -31 -96 -18 -204 12 -289 80 l-29 23 33 17 c26
14 72 27 123 35 4 1 29 -4 57 -10z"/>
<path d="M1183 2297 c-28 -28 -28 -39 -2 -94 28 -57 99 -94 99 -52 0 6 7 17
16 26 18 18 12 61 -15 108 -22 39 -66 44 -98 12z"/>
<path d="M1517 1880 c-31 -37 -41 -64 -33 -95 5 -19 13 -23 41 -23 72 0 130
115 69 138 -39 15 -50 12 -77 -20z"/>
</g>
</svg>
